<?xml version="1.0" encoding="utf-8"?>
<!-- Generator: Adobe Illustrator 25.2.0, SVG Export Plug-In . SVG Version: 6.00 Build 0)  -->
<svg version="1.1" id="Capa_1" xmlns="http://www.w3.org/2000/svg" xmlns:xlink="http://www.w3.org/1999/xlink" x="0px" y="0px"
	 viewBox="0 0 315 307" style="enable-background:new 0 0 315 307;" xml:space="preserve">
<style type="text/css">
	.st0{fill:#BCBCBC;}
	.st1{clip-path:url(#SVGID_2_);}
	.st2{clip-path:url(#SVGID_4_);}
	.st3{clip-path:url(#SVGID_6_);}
	.st4{clip-path:url(#SVGID_8_);}
	.st5{clip-path:url(#SVGID_10_);}
	.st6{clip-path:url(#SVGID_12_);}
</style>
<path class="st0" d="M45.9,247.2l-2.8-0.8c-1.2-0.3-2.3-0.8-3.3-1.4c-0.7-0.5-1.4-1.1-2-1.7c-0.9-1.3-1.1-2.9-0.5-4.3
	c0.8-2.2,2.9-3,4.9-3.3c3-0.4,6,0.2,8.6,1.7c1.3,0.6,2.4,1.6,3.1,2.8l6-3.6c-1.4-2.2-3.2-4-5.5-5.2c-4-2.2-8.6-3.1-13.1-2.6
	c-2.9,0.4-8.3,2.2-10.5,7.6c-1.4,4-0.7,8.4,1.8,11.7c1,1,2.1,2,3.3,2.8c1.6,1.1,3.5,1.9,5.3,2.4l3,0.8c6.3,1.4,7.7,2.4,8.7,3.4
	c0.7,0.7,1.3,1.7,0.6,3.9c-0.6,1.1-1.6,2-2.7,2.6c-1.2,0.6-2.4,1-3.7,1.2c-3,0.5-6.2-0.1-8.7-1.8c-1.8-0.9-3.2-2.5-4-4.3l-6.6,2.4
	c1.4,3.4,4,6.2,7.2,8.1c3.9,2.3,8.6,3.3,13.1,2.7c2.1-0.4,4.1-1,6-2c2.5-1.4,4.5-3.5,5.8-6c1.7-4,0.9-8.5-2-11.7
	C56.2,250.6,53.3,248.8,45.9,247.2z"/>
<path class="st0" d="M81.8,241.4c-2,0-6.8,1.1-8.9,4.7v-4.7h-6.8v44h6.8v-18.6c2.1,3.7,6.9,4.7,8.9,4.7c7.9,0,14.2-6.9,14.2-15.1
	S89.7,241.4,81.8,241.4z M81.3,265.4c-4.3,0-8.1-3.9-8.1-9s3.8-8.9,8.1-8.9s8.2,3.8,8.2,8.9S85.6,265.4,81.3,265.4L81.3,265.4z"/>
<path class="st0" d="M113,241.4c-8,0-14.2,6.9-14.2,15s6.2,15.1,14.2,15.1s14.2-6.9,14.2-15.1S121,241.4,113,241.4z M113,265.2
	c-4.3,0-8-3.7-8-8.7s3.7-8.6,8-8.6s8,3.7,8,8.6C121,261.4,117.3,265.2,113,265.2z"/>
<path class="st0" d="M142.3,264.3c-1.5,0-2.4-0.9-2.4-2.6V247h7.8v-6.5h-7.8v-9.7h-7v9.7h-5.1v6.5h5.1v14.7c0,5.1,4.5,9.6,9.4,9.6
	c2.5-0.1,4.9-1.1,6.7-2.9l-4.8-5.1C143.4,264.1,143.1,264.3,142.3,264.3z"/>
<g>
	<defs>
		<path id="SVGID_1_" d="M199,250.4c0.3-0.7,0.5-1.4,0.7-2.1c0.2-0.8,0.2-1.5,0.1-2.3c-0.1-0.5-0.2-1.1-0.4-1.6
			c-0.2-0.5-0.6-0.9-1.1-1.1c-0.6-0.4-1.3-0.5-2-0.3c-0.7,0.3-1.4,0.7-2,1.2c-1.5,1.7-3,3.4-4.5,5.1c-1.5,1.7-2.3,2.8-3.8,4.4
			c-1.2,1.2-1.2,1.2-2.9,2.8c-1,0.9-2,1.8-3,2.6c-0.5,0.5-1,0.9-1.6,1.1c-0.6,0.3-1.2,0.6-1.9,0.9s-1.2,0.2-1.5-0.7
			c0-0.2-0.1-0.3-0.2-0.4c-0.1-0.2-0.1-0.4-0.1-0.6c0-0.7-0.1-1.5-0.2-2.2s-0.1-1.4-0.2-2.1c0-1.4-0.1-2.8,0-4.2s0-2.8,0-4.3
			c-0.1-0.6-0.2-1.2-0.2-1.7s-0.1-1.2-0.2-1.8c0-0.5-0.2-0.9-0.6-1.2c-0.4-0.3-0.8-0.6-1.3-0.8c-0.9-0.4-1.9-0.4-2.8,0.1
			c-0.8,0.7-1.3,1.6-1.4,2.7c-0.4,2.8-0.9,5.7-1.4,8.6c-0.5,2.9-0.5,5.9-0.2,8.8c0.1,1.7,0.6,3.3,1.5,4.8c0.8,1.3,1.8,2.4,3.1,3.2
			c1.3,0.8,2.7,1.3,4.2,1.4c1.7,0.1,3.4-0.1,5-0.6c1.4-0.3,2.7-0.9,3.8-1.7c2.1-1.4,4-3,5.8-4.9c1.9-2.1,3.8-4.2,5.5-6.5
			c0.8-1,1.6-2.1,2.3-3.2C198.1,252.8,198.6,251.6,199,250.4z"/>
	</defs>
	<use xlink:href="#SVGID_1_"  style="overflow:visible;fill:#BCBCBC;"/>
	<clipPath id="SVGID_2_">
		<use xlink:href="#SVGID_1_"  style="overflow:visible;"/>
	</clipPath>
	<g class="st1">
		<polygon class="st0" points="294.9,285.6 163.8,285.6 161.4,228.6 292.5,228.6 		"/>
	</g>
</g>
<g>
	<defs>
		<path id="SVGID_3_" d="M207.4,237.8c0.5,0.4,1.1,0.8,1.7,1c0.6,0.3,1.3,0.4,2,0.4c1.3,0.1,2.5-0.4,3.5-1.2
			c0.9-0.7,1.3-1.8,1.2-2.9c0-1.2-0.5-2.3-1.5-3.1c-1.2-0.7-2.5-1.1-3.9-1.1c-1.8-0.1-3,0.3-3.6,1.2c-0.6,0.8-0.9,1.7-0.9,2.7
			c0,0.6,0.2,1.2,0.5,1.7C206.5,236.9,206.9,237.4,207.4,237.8z"/>
	</defs>
	<use xlink:href="#SVGID_3_"  style="overflow:visible;fill:#BCBCBC;"/>
	<clipPath id="SVGID_4_">
		<use xlink:href="#SVGID_3_"  style="overflow:visible;"/>
	</clipPath>
	<g class="st2">
		<rect x="163.4" y="222.1" class="st0" width="131.1" height="59"/>
	</g>
</g>
<g>
	<defs>
		<path id="SVGID_5_" d="M211.1,245.5c0-0.6-0.2-1.2-0.6-1.7c-0.4-0.4-0.8-0.7-1.3-0.9c-0.6-0.1-1.2-0.1-1.7,0.1
			c-0.5,0.3-0.9,0.7-1.1,1.3c-0.2,0.3-0.4,0.5-0.6,0.8c-0.2,0.3-0.3,0.5-0.4,0.8c-0.8,2.2-1.7,4.4-2.6,6.6s-1.6,4.3-2.3,6.5
			c-0.4,1.4-0.7,2.8-1,4.3c-0.2,1.5-0.5,2.9-0.8,4.3c-0.1,0.9,0,1.8,0.3,2.6c0.2,0.4,0.5,0.7,0.8,1c0.4,0.3,0.9,0.5,1.4,0.6
			c1,0.2,2.1-0.3,2.6-1.1c0.1-0.3,0.2-0.6,0.3-0.8c0.1-0.3,0.2-0.5,0.3-0.8c1.6-3.6,2.8-7.3,3.8-11.1c0.9-3.8,1.8-7.6,2.7-11.4
			L211.1,245.5z"/>
	</defs>
	<use xlink:href="#SVGID_5_"  style="overflow:visible;fill:#BCBCBC;"/>
	<clipPath id="SVGID_6_">
		<use xlink:href="#SVGID_5_"  style="overflow:visible;"/>
	</clipPath>
	<g class="st3">
		<rect x="163.4" y="222.1" class="st0" width="131.1" height="59"/>
	</g>
</g>
<g>
	<defs>
		<path id="SVGID_7_" d="M219.6,267.3c1.2,1.6,2.1,2.7,3.3,2.9c1.1,0.3,2.2,0.3,3.2,0c0.8-0.2,1.7-0.5,2.4-0.8c1-0.6,1.9-1.3,2.9-2
			c2.9-2.9,4.8-4.8,6.3-7.7c1.5-3.1,2-6.6,1.4-10c-0.1-1.6-0.8-3-2-4.1c-1.3-1-2.9-1.4-4.4-1.1c-0.9,0.1-1.8,0.3-2.7,0.5
			c-0.9,0.2-1.9,0.5-2.8,0.8c0-0.1,0.1-0.3,0.1-0.6c0.1-0.2,0.1-0.4,0.2-0.6c0.4-1.4,2.9-9.3,3.3-10.7s0.8-2.8,1.2-4.2
			c0.2-0.7,0.2-1.4,0.2-2.1c0-0.5-0.2-1-0.4-1.4c-0.3-0.5-0.7-0.8-1.2-1c-0.5-0.1-1.1-0.2-1.7-0.1c-0.6,0.1-1.1,0.4-1.5,0.9
			c-0.2,0.1-0.4,0.3-0.6,0.5c-0.1,0.2-0.3,0.4-0.4,0.7c-0.2,0.6-0.5,1.1-0.7,1.7s-0.4,1.1-0.6,1.7c-4.4,11.9-6.9,17.5-6.4,16.3
			c-2.2,5.3-4.5,10.7-6.9,16.2c-0.1,0.5-0.3,0.9-0.4,1.3c-0.2,0.4-0.3,0.8-0.4,1.2c-0.4,0.9-0.4,2-0.1,2.9c0.3,0.9,1,1.7,1.8,2.2
			c0.5,0.4,1.1,0.6,1.7,0.7c0.6,0.1,0.5,0.2,1.1,0c0.6-0.1,1.2-0.4,1.6-0.8c0.5-0.5,0.9-1,1.2-1.6 M232.8,254.6
			c-0.7,1.4-1.7,2.7-2.9,3.8c-1.3,1.2-2.7,2.2-4.3,3c-1.1,0.6-2.4,0.8-3.7,0.6c0.5-1.4,1.2-2.7,2.1-3.9c0.9-1.4,2-2.7,3.1-3.9
			c1-1.1,2.2-2.1,3.4-3c0.8-0.7,1.8-1.2,2.9-1.4C233.7,251.5,233.4,253.1,232.8,254.6L232.8,254.6z"/>
	</defs>
	<use xlink:href="#SVGID_7_"  style="overflow:visible;fill:#BCBCBC;"/>
	<clipPath id="SVGID_8_">
		<use xlink:href="#SVGID_7_"  style="overflow:visible;"/>
	</clipPath>
	<g class="st4">
		<polygon class="st0" points="295.3,277.9 164.2,277.9 163.8,220.5 294.9,220.5 		"/>
	</g>
</g>
<g>
	<defs>
		<path id="SVGID_9_" d="M263.8,257.1c-0.4,0.1-0.9,0.2-1.2,0.4c-0.4,0.2-0.8,0.5-1.2,0.7c-1,0.5-2,1-2.9,1.6s-2,1.1-3,1.6
			c-0.6,0.3-1.2,0.5-1.8,0.6c-0.6,0.2-1.3,0.3-1.9,0.4c-0.8,0.2-1.6,0-2.3-0.5c-0.7-0.5-1.1-1.2-1.1-2c0-0.8,0-1.6,0.1-2.4
			c0.1-0.8,0.3-1.6,0.8-2.4c1.5,1.2,3.4,1.9,5.4,1.8c2.4-0.2,4.7-1.2,6.5-2.9c1.8-1.7,3-3.9,3.2-6.4c0.3-1.1,0-2.3-0.6-3.2
			c-0.8-0.9-1.8-1.5-3-1.7c-1.6-0.3-3.2-0.2-4.7,0.2c-1.5,0.5-3,1.1-4.4,2c-1.6,1-3.1,2.1-4.4,3.4c-1.4,1.3-2.7,2.7-3.8,4.3
			c-1,1.5-1.8,3.1-2.4,4.8c-0.5,1.6-0.6,3.3-0.4,5c0.3,1.8,1.1,3.4,2.3,4.8c2.6,3.2,6.7,4.6,10.7,3.8c1.5-0.2,3-0.7,4.4-1.4
			c1.4-0.7,2.7-1.6,4-2.5c0.8-0.7,1.6-1.4,2.4-2.1c0.8-0.7,1.4-1.6,1.9-2.5l0.5-1.3c0.2-0.5,0.3-1,0.3-1.5
			C267,257.5,265.9,256.7,263.8,257.1z M251.7,250.8c0.7-0.8,1.4-1.4,2.3-1.9c0.9-0.5,1.8-1,2.7-1.3c0.9-0.3,1.8-0.4,2.7-0.2
			c-0.2,0.9-0.6,1.8-1.2,2.5c-0.6,0.8-1.3,1.4-2.1,1.9c-0.8,0.5-1.7,0.9-2.7,1.1c-1,0.2-2,0.2-3,0.1
			C250.6,252.2,251.1,251.4,251.7,250.8z"/>
	</defs>
	<use xlink:href="#SVGID_9_"  style="overflow:visible;fill:#BCBCBC;"/>
	<clipPath id="SVGID_10_">
		<use xlink:href="#SVGID_9_"  style="overflow:visible;"/>
	</clipPath>
	<g class="st5">
		<polygon class="st0" points="294.5,277.1 163.4,281.1 163.4,222.1 294.5,222.1 		"/>
	</g>
</g>
<g>
	<defs>
		<path id="SVGID_11_" d="M284.7,244.6c-0.2-0.6-0.6-1.1-1.1-1.6c-0.5-0.4-1.2-0.6-1.9-0.5c-0.7,0.1-1.3,0.2-2,0.4
			c-0.6,0.2-1.2,0.4-1.8,0.7c-0.9,0.5-1.7,1.1-2.5,1.8c-0.8,0.7-1.5,1.5-2.1,2.4c-2.9,3-3.8,7.5-2.3,11.4c0.2,0.6,0.4,1.3,0.6,1.9
			c0.2,0.6,0.5,1.3,0.8,2c-0.8,0.7-1.7,1.4-2.6,2.1c-0.2,0.3-0.4,0.5-0.6,0.7s-0.4,0.5-0.7,0.7c-0.5,0.6-0.6,1.4-0.3,2.1
			c0.3,0.8,0.9,1.4,1.6,1.7c0.2,0.1,0.5,0.2,0.7,0.2h0.7c1.1,0,2.1-0.1,3.1-0.5c1-0.3,1.9-0.8,2.8-1.3c2.3-1.7,3.2-3.8,2.6-6.4
			c-0.1-0.7-0.3-1.4-0.5-2l-0.8-1.9c-1.1-2.5-0.7-5.4,1.1-7.5c1-1.3,2.2-2.4,3.6-3.2c0.6-0.3,1.1-0.8,1.4-1.4
			C284.9,245.9,284.9,245.3,284.7,244.6z"/>
	</defs>
	<use xlink:href="#SVGID_11_"  style="overflow:visible;fill:#BCBCBC;"/>
	<clipPath id="SVGID_12_">
		<use xlink:href="#SVGID_11_"  style="overflow:visible;"/>
	</clipPath>
	<g class="st6">
		<polygon class="st0" points="294.5,277.1 163.4,277.9 163.4,222.1 294.5,222.1 		"/>
	</g>
</g>
<path class="st0" d="M160.2,227.7v6.8h-6.8v-6.8H160.2z M153.5,241.7h6.5v29.8h-6.5V241.7z"/>
<g>
	<path class="st0" d="M192.1,83.6c-0.3-4-0.7-5.4-1.5-7.2c-0.7-1.5-1.4-3.2-5.1-6.7c-3.1-3.1-10.2-3.4-12-5.2
		c-7.2-6.9-8.4-10.9-8.4-10.9c-1.5,0.3-3,0.8-4.4,1.5c-1.7,1-3,2.7-3.1,3.6c-0.1,2.5,2.2,14.7,2.4,24.9c0.1,7.7-0.4,15.5-1.4,23.1
		c0,0-11.9-13.1-21.6-2.1c-9.7,11-1,18.2-1,18.2s9.2,10.4,21.5,7.1c12.3-3.3,11.2-20,11.2-20V84.7l-1-14.2c3.7,0.6,7.3,2,10.4,4.1
		c3.1,2.3,5.1,6.6,5.6,10c1.3,8.4,0.4,11.8,0.4,11.8s-0.1,1.7,6.2-2c1-0.7,1.6-1.8,1.5-3.1C192.3,88.8,192.3,86.2,192.1,83.6z"/>
	<path class="st0" d="M225.1,65.3c-2.9-5.6-10-21.3-27.6-32.3c-5.4-3.4-11.2-6.1-17.3-8c-6.8-2.1-13.8-3.1-20.9-3
		c-8.8,0-17.5,1.6-25.8,4.8c-8.6,3.3-16.4,8.2-23,14.5C97.7,53.7,91.2,68.6,89.2,80.2c-3.8,21.3,2.5,35.4,4.8,41.8
		c2.4,6.5,14.5,24.8,28.8,40.1c14.2,15.4,30.7,29.9,30.7,29.9s3.6,4,6.4,4c2.8,0.1,5.2-1.4,7.5-4c1.2-1.3,14.7-14,29-29.9
		C210,147,222.3,128.5,224,124C227.2,115.6,238.4,95.9,225.1,65.3z M159.9,145.5c-29.1,0-52.7-23.6-52.7-52.7
		c0-29.1,23.6-52.7,52.7-52.7c29.1,0,52.7,23.6,52.7,52.7S189,145.5,159.9,145.5z"/>
</g>
</svg>
