<?xml version="1.0" standalone="no"?>
<!DOCTYPE svg PUBLIC "-//W3C//DTD SVG 20010904//EN"
 "http://www.w3.org/TR/2001/REC-SVG-20010904/DTD/svg10.dtd">
<svg version="1.0" xmlns="http://www.w3.org/2000/svg"
 width="184.000000pt" height="184.000000pt" viewBox="0 0 184.000000 184.000000"
 preserveAspectRatio="xMidYMid meet">
<metadata>
Created by potrace 1.14, written by Peter Selinger 2001-2017
</metadata>
<g transform="translate(0.000000,184.000000) scale(0.100000,-0.100000)"
fill="#000000" stroke="none">
<path d="M734 1760 c-195 -51 -356 -182 -453 -369 -57 -109 -75 -185 -75 -316
0 -266 109 -454 480 -822 181 -181 207 -203 236 -203 29 0 52 19 203 172 365
369 490 572 502 816 4 76 1 120 -11 175 -23 94 -93 236 -155 313 -91 112 -241
205 -383 239 -89 21 -255 19 -344 -5z m311 -175 c100 -26 165 -64 241 -139
108 -108 157 -223 157 -371 0 -148 -49 -263 -157 -371 -113 -113 -239 -161
-396 -151 -195 11 -355 118 -440 292 -146 300 17 653 340 739 73 19 182 20
255 1z"/>
<path d="M945 1460 c-45 -17 -49 -34 -37 -135 13 -102 16 -266 6 -338 l-6 -45
-46 29 c-74 47 -138 34 -187 -38 -44 -66 -29 -137 42 -186 107 -74 212 -61
267 33 20 33 21 51 21 277 0 238 0 243 20 237 95 -30 135 -85 138 -190 2 -70
12 -78 55 -48 19 13 22 24 22 81 0 112 -44 177 -137 202 -38 11 -82 48 -123
108 -11 16 -20 19 -35 13z"/>
</g>
</svg>
