<svg id="Capa_1" data-name="Capa 1" xmlns="http://www.w3.org/2000/svg" xmlns:xlink="http://www.w3.org/1999/xlink" viewBox="0 0 150 184.24"><defs><style>.cls-1{fill:url(#Degradado_sin_nombre_7);}.cls-2{fill:#fff;}</style><linearGradient id="Degradado_sin_nombre_7" x1="360.26" y1="227.29" x2="434.33" y2="323.75" gradientTransform="matrix(1.57, 0, 0, -1.57, -555.59, 518.27)" gradientUnits="userSpaceOnUse"><stop offset="0" stop-color="#5f96d8"/><stop offset="0.47" stop-color="#612eb3"/><stop offset="0.77" stop-color="#981fd0"/><stop offset="1" stop-color="#da00d1"/></linearGradient></defs><g id="BwrBvD57vQVxMVghcC-14"><path class="cls-1" d="M9,105.7c2.4,6.4,14.5,24.8,28.8,40.1s30.7,29.9,30.7,29.9,3.6,4,6.4,4.1,5.2-1.4,7.5-4.1c1.2-1.4,14.7-14,29-29.9,13.6-15.1,25.9-33.6,27.6-38.1,3.2-8.4,14.4-28.2,1.1-58.8-2.9-5.6-10-21.3-27.6-32.3a73.47,73.47,0,0,0-17.3-8,67.35,67.35,0,0,0-20.9-3,71.51,71.51,0,0,0-25.8,4.8A69.9,69.9,0,0,0,25.6,25C12.7,37.4,6.2,52.3,4.2,63.9.4,85.1,6.7,99.3,9,105.7Z"/></g><g id="S11NKakR6PDzuL7KhdR3Q"><path class="cls-2" d="M74.9,23.9A52.7,52.7,0,1,1,22.3,76.6,52.71,52.71,0,0,1,74.9,23.9Zm.3,43.4a164.2,164.2,0,0,1-1.4,23.2S61.9,77.4,52.2,88.4s-1,18.2-1,18.2,9.2,10.4,21.5,7.1S84,93.7,84,93.7V68.4L83,54.2a26.09,26.09,0,0,1,10.4,4.1c3.1,2.3,5.1,6.6,5.7,10,1.3,8.3.3,11.8.3,11.8s-.1,1.7,6.2-2a3.39,3.39,0,0,0,1.5-3.1,49.48,49.48,0,0,0,0-7.7c-.3-4-.7-5.4-1.5-7.2-.7-1.5-1.4-3.2-5.1-6.7-3.1-3.1-10.2-3.4-12-5.2-7.2-6.9-8.4-10.9-8.4-10.9a17.61,17.61,0,0,0-4.4,1.5c-1.7,1-3,2.7-3,3.7C72.6,44.9,75,57.1,75.2,67.3Z"/></g></svg>