<?xml version="1.0" encoding="utf-8"?>
<!-- Generator: Adobe Illustrator 25.2.0, SVG Export Plug-In . SVG Version: 6.00 Build 0)  -->
<svg version="1.1" id="Capa_1" xmlns="http://www.w3.org/2000/svg" xmlns:xlink="http://www.w3.org/1999/xlink" x="0px" y="0px"
	 viewBox="0 0 845 206" style="enable-background:new 0 0 845 206;" xml:space="preserve">
<style type="text/css">
	.st0{clip-path:url(#SVGID_2_);}
	.st1{fill:url(#SVGID_3_);}
	.st2{clip-path:url(#SVGID_5_);}
	.st3{fill:url(#SVGID_6_);}
	.st4{clip-path:url(#SVGID_8_);}
	.st5{fill:url(#SVGID_9_);}
	.st6{clip-path:url(#SVGID_11_);}
	.st7{fill:url(#SVGID_12_);}
	.st8{clip-path:url(#SVGID_14_);}
	.st9{fill:url(#SVGID_15_);}
	.st10{clip-path:url(#SVGID_17_);}
	.st11{fill:url(#SVGID_18_);}
	.st12{fill:url(#SVGID_19_);}
	.st13{fill:#FFFFFF;}
</style>
<path d="M216.4,93.6l-6.8-1.9c-2.9-0.7-5.6-1.8-8.2-3.3c-1.7-1.3-3.3-2.6-4.9-4.2c-2.2-3.1-2.8-7.1-1.4-10.7c2.1-5.5,7.1-7.3,12-8
	c6.4-0.7,13.7-0.3,21.1,4.2c4.1,2.3,6.1,4.3,7.6,6.8l14.7-8.9c-3.3-5.4-8-9.8-13.4-12.9c-11.3-6.7-23.8-7.4-32.1-6.4
	c-7.2,1-20.5,5.5-25.9,18.6c-4,9.8-0.8,22.4,4.6,28.8c2.5,2.5,5.1,4.8,8,6.8c4,2.6,8.5,4.6,13.2,5.8l7.3,1.9
	c15.5,3.5,19,5.8,21.3,8.3c1.8,1.7,3.2,4.3,1.4,9.6c-1.6,2.6-3.8,4.8-6.5,6.4c-2.8,1.4-5.9,2.4-9,2.9c-8.2,1.1-13.7,0.1-21.5-4.3
	c-6.5-3.7-9.1-8.6-9.8-10.7l-16.3,5.8c3.5,8.3,9.7,15.3,17.6,19.8c9.7,5.8,21.1,8.1,32.3,6.5c4.7-0.6,10.9-2.9,14.8-4.9
	c5.8-3.3,11.6-9,14.3-14.7c5.1-12.9-0.3-24-5-28.7C241.6,102.1,234.5,97.5,216.4,93.6z"/>
<path d="M304.5,79.3c-4.9,0-16.8,2.8-21.9,11.5V79.3H266v108.2h16.6v-45.7c5.1,9.1,16.9,11.6,21.9,11.6c19.5,0,34.9-17,34.9-37.1
	C339.4,96.5,324,79.3,304.5,79.3z M303.2,138.3c-10.7,0-19.9-9.6-19.9-22s9.3-21.7,19.9-21.7s20.1,9.4,20.1,21.7
	C323.3,128.8,313.9,138.3,303.2,138.3L303.2,138.3z"/>
<path d="M381.1,79.5c-19.5,0-34.8,17-34.8,37s15.2,37,34.8,37s34.8-17,34.8-37S400.7,79.5,381.1,79.5z M381.1,137.8
	c-10.5,0-19.5-9.1-19.5-21.3s9-21.2,19.5-21.2s19.5,9.1,19.5,21.2S391.6,137.8,381.1,137.8z"/>
<path d="M453.1,135.7c-3.7,0-5.8-2.1-5.8-6.5V93.1h19.2V77h-19.2V53.2h-17.2V77h-12.6v16.1h12.6v36.1c0,12.6,11,23.7,23,23.7
	c6.5,0,12-2.9,16.5-7.1l-11.9-12.5C455.7,135.3,455,135.7,453.1,135.7z"/>
<g>
	<defs>
		<path id="SVGID_1_" d="M592.3,101.5c0.7-1.6,1.3-3.3,1.6-5.1c0.7-3.2,0.4-6.5-0.8-9.4c-0.6-1.2-1.6-2.2-2.8-2.8
			c-1.5-0.9-3.3-1.2-5-0.7c-1.8,0.7-3.4,1.7-4.8,3.1c-3.7,4.1-7.4,8.3-11,12.6c-3.7,4.2-5.6,6.9-9.4,10.8c-3,3.1-3,3-7,7
			c-2.3,2.3-4.8,4.4-7.4,6.4c-1.2,1.2-2.5,2.1-4,2.8c-1.5,0.7-3,1.4-4.5,2.1c-1.8,1.1-3,0.5-3.7-1.8c-0.1-0.4-0.3-0.7-0.4-1.1
			c-0.2-0.4-0.3-0.9-0.3-1.4c-0.1-1.8-0.2-3.6-0.4-5.3s-0.3-3.5-0.4-5.2c-0.1-3.4-0.1-6.9-0.1-10.3s0-6.9-0.1-10.5
			c-0.2-1.4-0.4-2.8-0.5-4.3s-0.3-2.9-0.5-4.4c-0.1-1.1-0.6-2.2-1.4-3c-1-0.8-2-1.5-3.2-2c-2.7-1-5-0.9-6.8,0.3s-2.9,3.4-3.4,6.6
			c-1.1,6.9-2.2,13.9-3.3,21.2c-1.1,7.2-1.3,14.5-0.5,21.7c0.3,4.1,1.6,8.1,3.7,11.7c1.9,3.2,4.4,5.9,7.5,7.9
			c3.1,2,6.6,3.2,10.3,3.5c4.1,0.3,8.3-0.2,12.2-1.5c5.4-1.8,4.4-1.3,9.4-4.3c5.6-4.1,9.5-7,14.1-11.9c4.8-5.1,9.3-10.4,13.5-15.9
			c2-2.5,3.9-5.1,5.6-7.9C589.8,107.5,591.2,104.6,592.3,101.5z"/>
	</defs>
	<clipPath id="SVGID_2_">
		<use xlink:href="#SVGID_1_"  style="overflow:visible;"/>
	</clipPath>
	<g class="st0">
		
			<linearGradient id="SVGID_3_" gradientUnits="userSpaceOnUse" x1="550" y1="-26" x2="778" y2="202" gradientTransform="matrix(1 0 0 -1 0 206)">
			<stop  offset="0" style="stop-color:#4A75EE"/>
			<stop  offset="7.000000e-02" style="stop-color:#5469DF"/>
			<stop  offset="0.24" style="stop-color:#6B4FBF"/>
			<stop  offset="0.38" style="stop-color:#793FAA"/>
			<stop  offset="0.48" style="stop-color:#7E39A3"/>
			<stop  offset="0.56" style="stop-color:#8436A6"/>
			<stop  offset="0.67" style="stop-color:#942EAD"/>
			<stop  offset="0.78" style="stop-color:#AF21B9"/>
			<stop  offset="0.91" style="stop-color:#D50FCA"/>
			<stop  offset="1" style="stop-color:#F400D8"/>
		</linearGradient>
		<polygon class="st1" points="828,188 506,188 500,48 822,48 		"/>
	</g>
</g>
<g>
	<defs>
		<path id="SVGID_4_" d="M612.9,70.6c1.2,1,2.6,1.9,4.1,2.4c1.5,0.6,3.2,0.9,4.8,0.9c3.1,0.1,6.2-0.9,8.6-3c2.1-1.7,3.2-4.4,2.9-7.1
			c-0.2-3.4-1.5-6-3.7-7.6s-5.4-2.6-9.6-2.8c-4.4-0.1-7.3,0.9-8.8,3c-1.4,1.9-2.2,4.2-2.3,6.6c0,1.4,0.4,2.9,1.1,4.1
			C610.7,68.4,611.7,69.6,612.9,70.6z"/>
	</defs>
	<clipPath id="SVGID_5_">
		<use xlink:href="#SVGID_4_"  style="overflow:visible;"/>
	</clipPath>
	<g class="st2">
		
			<linearGradient id="SVGID_6_" gradientUnits="userSpaceOnUse" x1="549.25" y1="-15.25" x2="782.75" y2="218.25" gradientTransform="matrix(1 0 0 -1 0 206)">
			<stop  offset="0" style="stop-color:#4A75EE"/>
			<stop  offset="7.000000e-02" style="stop-color:#5469DF"/>
			<stop  offset="0.24" style="stop-color:#6B4FBF"/>
			<stop  offset="0.38" style="stop-color:#793FAA"/>
			<stop  offset="0.48" style="stop-color:#7E39A3"/>
			<stop  offset="0.56" style="stop-color:#8436A6"/>
			<stop  offset="0.67" style="stop-color:#942EAD"/>
			<stop  offset="0.78" style="stop-color:#AF21B9"/>
			<stop  offset="0.91" style="stop-color:#D50FCA"/>
			<stop  offset="1" style="stop-color:#F400D8"/>
		</linearGradient>
		<rect x="505" y="32" class="st3" width="322" height="145"/>
	</g>
</g>
<g>
	<defs>
		<path id="SVGID_7_" d="M622.2,89.4c-0.1-1.5-0.6-2.9-1.4-4.2c-1.7-2.3-4.8-3.1-7.4-1.9c-1.3,0.7-2.3,1.8-2.8,3.2
			c-0.6,0.6-1.1,1.3-1.5,2c-0.4,0.6-0.7,1.3-1,2c-2.1,5.4-4.1,10.8-6.3,16.2c-2.1,5.3-4,10.7-5.7,16c-1,3.5-1.8,7-2.4,10.5
			c-0.6,3.6-1.2,7.1-1.8,10.5c-0.3,2.2,0,4.4,0.8,6.4c0.5,1,1.1,1.8,1.9,2.5c1,0.8,2.3,1.3,3.5,1.4c2.5,0.5,5.1-0.6,6.4-2.8
			c0.2-0.7,0.5-1.4,0.8-2c0.3-0.6,0.6-1.3,0.8-2c3.8-8.9,6.9-18,9.3-27.3c2.3-9.2,4.5-18.6,6.6-28.1L622.2,89.4z"/>
	</defs>
	<clipPath id="SVGID_8_">
		<use xlink:href="#SVGID_7_"  style="overflow:visible;"/>
	</clipPath>
	<g class="st4">
		
			<linearGradient id="SVGID_9_" gradientUnits="userSpaceOnUse" x1="549.25" y1="-15.25" x2="782.75" y2="218.25" gradientTransform="matrix(1 0 0 -1 0 206)">
			<stop  offset="0" style="stop-color:#4A75EE"/>
			<stop  offset="7.000000e-02" style="stop-color:#5469DF"/>
			<stop  offset="0.24" style="stop-color:#6B4FBF"/>
			<stop  offset="0.38" style="stop-color:#793FAA"/>
			<stop  offset="0.48" style="stop-color:#7E39A3"/>
			<stop  offset="0.56" style="stop-color:#8436A6"/>
			<stop  offset="0.67" style="stop-color:#942EAD"/>
			<stop  offset="0.78" style="stop-color:#AF21B9"/>
			<stop  offset="0.91" style="stop-color:#D50FCA"/>
			<stop  offset="1" style="stop-color:#F400D8"/>
		</linearGradient>
		<rect x="505" y="32" class="st5" width="322" height="145"/>
	</g>
</g>
<g>
	<defs>
		<path id="SVGID_10_" d="M643,143c3,4,5.2,6.6,8,7s4.9,0.8,8,0c2.1-0.4,4.1-1.1,6-2c2-1,5.3-3.8,7-5c7-7,11.8-11.9,15.4-18.9
			s4.7-15.2,3.4-24.6c-0.6-4.4-2.2-7.8-5-10.1s-6.4-3.2-10.9-2.7c-2.2,0.2-4.4,0.6-6.6,1.2c-2.2,0.6-4.6,1.2-7,1.9
			c0.1-0.4,0.3-0.9,0.4-1.3c0.1-0.5,0.3-1,0.6-1.5c1.1-3.4,7.1-22.8,8.1-26.2s2-6.8,2.9-10.2c0.4-1.7,0.6-3.4,0.6-5.2
			c-0.1-1.2-0.4-2.4-1-3.5c-0.7-1.1-1.7-2-2.9-2.4c-1.3-0.4-2.7-0.5-4.1-0.3c-1.4,0.2-2.7,1-3.6,2.2c-0.6,0.3-1.1,0.8-1.4,1.3
			c-0.4,0.5-0.7,1.1-1.1,1.7c-0.6,1.4-1.2,2.8-1.7,4.1s-1.1,2.7-1.5,4.1c-10.9,29.3-16.9,42.9-15.8,40.1
			c-5.4,13.1-11,26.4-16.8,39.8c-0.4,1.2-0.7,2.2-1.1,3.2c-0.4,1-0.7,2-0.9,3c-1,2.3-1,4.8-0.1,7.1c0.8,2.2,2.3,4.1,4.3,5.4
			c1.2,0.9,2.7,1.5,4.3,1.7c1.5,0.2,1.3,0.4,2.7,0.1c1.5-0.4,2.8-1,4-2c1.1-0.9,1.3-1.7,3-4 M675.3,111.8c-1.7,3.6-4.1,6.8-7.1,9.4
			c-3.1,3-6.7,5.5-10.5,7.3c-3.7,1.7-6.7,2.2-9.1,1.5c1.3-3.4,3-6.6,5.1-9.6c2.3-3.4,4.9-6.5,7.7-9.5c2.6-2.7,5.4-5.1,8.3-7.3
			c2.7-2,5.1-3.1,7.1-3.3C677.5,104.2,676.9,108.2,675.3,111.8L675.3,111.8z"/>
	</defs>
	<clipPath id="SVGID_11_">
		<use xlink:href="#SVGID_10_"  style="overflow:visible;"/>
	</clipPath>
	<g class="st6">
		
			<linearGradient id="SVGID_12_" gradientUnits="userSpaceOnUse" x1="552" y1="-8" x2="783" y2="223" gradientTransform="matrix(1 0 0 -1 0 206)">
			<stop  offset="0" style="stop-color:#4A75EE"/>
			<stop  offset="7.000000e-02" style="stop-color:#5469DF"/>
			<stop  offset="0.24" style="stop-color:#6B4FBF"/>
			<stop  offset="0.38" style="stop-color:#793FAA"/>
			<stop  offset="0.48" style="stop-color:#7E39A3"/>
			<stop  offset="0.56" style="stop-color:#8436A6"/>
			<stop  offset="0.67" style="stop-color:#942EAD"/>
			<stop  offset="0.78" style="stop-color:#AF21B9"/>
			<stop  offset="0.91" style="stop-color:#D50FCA"/>
			<stop  offset="1" style="stop-color:#F400D8"/>
		</linearGradient>
		<polygon class="st7" points="829,169 507,169 506,28 828,28 		"/>
	</g>
</g>
<g>
	<defs>
		<path id="SVGID_13_" d="M751.4,118c-1.1,0.1-2.1,0.5-3,1c-1,0.6-2,1.2-3,1.8c-2.4,1.2-4.8,2.6-7.2,4s-4.9,2.8-7.4,4
			c-1.4,0.6-2.9,1.2-4.5,1.6c-1.5,0.4-3.1,0.8-4.6,1c-2,0.4-4-0.1-5.7-1.3c-1.6-1.2-2.6-3-2.8-5c-0.1-2-0.1-3.9,0.1-5.9
			c0.2-2.1,0.8-4,1.8-5.8c4.8,3.3,9.2,4.8,13.2,4.4c6-0.5,11.6-3,16-7.1c4.5-4.1,7.3-9.6,8-15.7c0.5-3.3,0-5.9-1.5-8
			c-1.9-2.2-4.5-3.6-7.3-4.1c-3.8-0.8-7.8-0.6-11.5,0.5c-3.8,1.2-7.4,2.8-10.7,4.9c-3.9,2.4-7.5,5.2-10.8,8.3
			c-3.5,3.2-6.6,6.7-9.3,10.5c-2.6,3.6-4.5,7.6-5.9,11.8c-1.2,3.9-1.6,8.1-1,12.2c0.7,4.4,2.7,8.4,5.7,11.6
			c6.8,8,15.5,11.1,26.2,9.3c3.7-0.6,7.4-1.8,10.7-3.5c3.4-1.8,6.7-3.9,9.8-6.2c2-1.8,4-3.5,5.8-5.3c1.9-1.8,3.5-3.9,4.7-6.2
			c0.4-1,0.8-2.1,1.2-3.2c0.5-1.1,0.7-2.4,0.7-3.6C759.3,119,756.7,116.9,751.4,118z M721.7,102.4c1.6-1.8,3.5-3.4,5.6-4.7
			c2.1-1.3,4.4-2.3,6.7-3.1c2.2-0.7,4.5-0.9,6.7-0.5c-0.5,2.3-1.6,4.4-3,6.2c-1.4,1.9-3.2,3.5-5.2,4.7c-2,1.3-4.3,2.2-6.6,2.7
			c-2.4,0.6-4.9,0.6-7.4,0.2C719.2,105.9,720.3,104,721.7,102.4L721.7,102.4z"/>
	</defs>
	<clipPath id="SVGID_14_">
		<use xlink:href="#SVGID_13_"  style="overflow:visible;"/>
	</clipPath>
	<g class="st8">
		
			<linearGradient id="SVGID_15_" gradientUnits="userSpaceOnUse" x1="546.75" y1="-12.75" x2="780.25" y2="220.75" gradientTransform="matrix(1 0 0 -1 0 206)">
			<stop  offset="0" style="stop-color:#4A75EE"/>
			<stop  offset="7.000000e-02" style="stop-color:#5469DF"/>
			<stop  offset="0.24" style="stop-color:#6B4FBF"/>
			<stop  offset="0.38" style="stop-color:#793FAA"/>
			<stop  offset="0.48" style="stop-color:#7E39A3"/>
			<stop  offset="0.56" style="stop-color:#8436A6"/>
			<stop  offset="0.67" style="stop-color:#942EAD"/>
			<stop  offset="0.78" style="stop-color:#AF21B9"/>
			<stop  offset="0.91" style="stop-color:#D50FCA"/>
			<stop  offset="1" style="stop-color:#F400D8"/>
		</linearGradient>
		<polygon class="st9" points="827,167 505,177 505,32 827,32 		"/>
	</g>
</g>
<g>
	<defs>
		<path id="SVGID_16_" d="M802.9,87.4c-0.6-1.5-1.5-2.8-2.7-3.8c-1.3-1-3-1.5-4.6-1.2c-1.7,0.2-3.3,0.6-4.9,1.1
			c-1.5,0.5-2.9,1-4.4,1.7c-2.2,1.2-4.3,2.6-6.2,4.3c-1.9,1.7-3.6,3.7-5.1,5.8c-7.4,8.4-9.3,17.7-5.7,28c0.4,1.6,0.9,3.1,1.5,4.7
			c0.6,1.6,1.2,3.2,1.9,5c-2,1.8-4.2,3.5-6.5,5.1c-0.5,0.6-1,1.2-1.5,1.8s-1.1,1.2-1.7,1.8c-1.1,1.5-1.4,3.5-0.8,5.3
			c0.7,1.9,2.1,3.4,4,4.2c0.6,0.2,1.2,0.4,1.8,0.4h1.8c2.6,0,5.2-0.4,7.7-1.2c2.4-0.8,4.8-1.9,6.9-3.3c5.7-4.1,7.8-9.3,6.3-15.7
			c-0.2-1.7-0.7-3.4-1.3-5c-0.6-1.6-1.2-3.1-1.9-4.7c-2.6-6.7-1.7-12.8,2.8-18.3c2.4-3.2,5.4-5.9,9-7.9c1.5-0.7,2.7-2,3.4-3.5
			C803.2,90.5,803.3,88.9,802.9,87.4z"/>
	</defs>
	<clipPath id="SVGID_17_">
		<use xlink:href="#SVGID_16_"  style="overflow:visible;"/>
	</clipPath>
	<g class="st10">
		
			<linearGradient id="SVGID_18_" gradientUnits="userSpaceOnUse" x1="550.75" y1="-8.75" x2="780.25" y2="220.75" gradientTransform="matrix(1 0 0 -1 0 206)">
			<stop  offset="0" style="stop-color:#4A75EE"/>
			<stop  offset="7.000000e-02" style="stop-color:#5469DF"/>
			<stop  offset="0.24" style="stop-color:#6B4FBF"/>
			<stop  offset="0.38" style="stop-color:#793FAA"/>
			<stop  offset="0.48" style="stop-color:#7E39A3"/>
			<stop  offset="0.56" style="stop-color:#8436A6"/>
			<stop  offset="0.67" style="stop-color:#942EAD"/>
			<stop  offset="0.78" style="stop-color:#AF21B9"/>
			<stop  offset="0.91" style="stop-color:#D50FCA"/>
			<stop  offset="1" style="stop-color:#F400D8"/>
		</linearGradient>
		<polygon class="st11" points="827,167 505,169 505,32 827,32 		"/>
	</g>
</g>
<path d="M497,45.7v16.7h-16.7V45.7H497z M480.7,80h16v73.2h-16V80z"/>
<g id="BwrBvD57vQVxMVghcC-14">
	
		<linearGradient id="SVGID_19_" gradientUnits="userSpaceOnUse" x1="215.124" y1="-46.3875" x2="289.194" y2="-142.8475" gradientTransform="matrix(1.57 0 0 1.57 -328.73 245.55)">
		<stop  offset="0" style="stop-color:#5F96D8"/>
		<stop  offset="0.47" style="stop-color:#612EB3"/>
		<stop  offset="0.77" style="stop-color:#981FD0"/>
		<stop  offset="1" style="stop-color:#DA00D1"/>
	</linearGradient>
	<path class="st12" d="M8,117c2.4,6.4,14.5,24.8,28.8,40.1S67.5,187,67.5,187s3.6,4,6.4,4.1s5.2-1.4,7.5-4.1
		c1.2-1.4,14.7-14,29-29.9C124,142,136.3,123.5,138,119c3.2-8.4,14.4-28.2,1.1-58.8c-2.9-5.6-10-21.3-27.6-32.3
		c-5.4-3.4-11.2-6.1-17.3-8c-6.8-2.1-13.8-3.1-20.9-3c-8.8,0-17.5,1.6-25.8,4.8C39,25,31.2,30,24.6,36.3
		C11.7,48.7,5.2,63.6,3.2,75.2C-0.6,96.4,5.7,110.6,8,117z"/>
</g>
<g id="S11NKakR6PDzuL7KhdR3Q">
	<path class="st13" d="M73.9,35.2c29.1,0,52.7,23.6,52.7,52.7s-23.6,52.7-52.7,52.7S21.3,117,21.3,87.9
		C21.3,58.8,44.9,35.2,73.9,35.2z M74.2,78.6c0.1,7.7-0.4,15.5-1.4,23.2c0,0-11.9-13.1-21.6-2.1s-1,18.2-1,18.2s9.2,10.4,21.5,7.1
		S83,105,83,105V79.7l-1-14.2c3.7,0.6,7.3,2,10.4,4.1c3.1,2.3,5.1,6.6,5.7,10c1.3,8.3,0.3,11.8,0.3,11.8s-0.1,1.7,6.2-2
		c1-0.7,1.6-1.8,1.5-3.1c0.2-2.6,0.2-5.2,0-7.7c-0.3-4-0.7-5.4-1.5-7.2c-0.7-1.5-1.4-3.2-5.1-6.7c-3.1-3.1-10.2-3.4-12-5.2
		c-7.2-6.9-8.4-10.9-8.4-10.9c-1.5,0.3-3,0.8-4.4,1.5c-1.7,1-3,2.7-3,3.7C71.6,56.2,74,68.4,74.2,78.6z"/>
</g>
</svg>
