<svg id="Capa_1" data-name="Capa 1" xmlns="http://www.w3.org/2000/svg" xmlns:xlink="http://www.w3.org/1999/xlink" viewBox="0 0 842 206"><defs><style>.cls-1{fill:#fff;}.cls-2{clip-path:url(#clip-path);}.cls-3{clip-path:url(#clip-path-2);}.cls-4{clip-path:url(#clip-path-3);}.cls-5{clip-path:url(#clip-path-4);}.cls-6{clip-path:url(#clip-path-5);}.cls-7{clip-path:url(#clip-path-6);}</style><clipPath id="clip-path"><path class="cls-1" d="M606.59,101.9a26.67,26.67,0,0,0,1.64-5.06,17.29,17.29,0,0,0,.21-5.61,16.58,16.58,0,0,0-1-3.83,5.63,5.63,0,0,0-2.83-2.78,6.1,6.1,0,0,0-5-.66A14.19,14.19,0,0,0,594.76,87q-5.55,6.21-11,12.57c-3.65,4.25-5.62,6.91-9.45,10.8-3,3.07-3,3-7,7a85.71,85.71,0,0,1-7.4,6.37,14.47,14.47,0,0,1-4,2.82q-2.24,1.05-4.56,2.11-2.68,1.57-3.72-1.81a9.66,9.66,0,0,0-.44-1.07,3.21,3.21,0,0,1-.26-1.43c-.11-1.78-.24-3.56-.41-5.34s-.3-3.5-.41-5.17c-.09-3.44-.13-6.88-.1-10.32s0-6.95-.11-10.51c-.23-1.43-.4-2.85-.5-4.28s-.28-2.91-.51-4.45a4.34,4.34,0,0,0-1.4-3,13.77,13.77,0,0,0-3.19-2c-2.73-1-5-.86-6.77.31s-2.93,3.36-3.43,6.57q-1.66,10.31-3.35,21.16a82.73,82.73,0,0,0-.5,21.72,27.29,27.29,0,0,0,3.65,11.68,24.52,24.52,0,0,0,7.52,7.89,22.42,22.42,0,0,0,10.3,3.54,29.58,29.58,0,0,0,12.21-1.52c5.35-1.74,4.4-1.25,9.4-4.25,5.61-4.11,9.45-6.95,14.12-11.91a198.16,198.16,0,0,0,13.46-15.93,66.53,66.53,0,0,0,5.57-7.88A47.77,47.77,0,0,0,606.59,101.9Z"/></clipPath><clipPath id="clip-path-2"><path class="cls-1" d="M627.17,71a14.11,14.11,0,0,0,4.08,2.43,13.26,13.26,0,0,0,4.8.92,12.31,12.31,0,0,0,8.56-3,7.77,7.77,0,0,0,2.9-7.1q-.32-5.16-3.68-7.59t-9.6-2.83c-4.39-.14-7.34.84-8.83,3a11.38,11.38,0,0,0-2.27,6.57,7.81,7.81,0,0,0,1.13,4.1A13.51,13.51,0,0,0,627.17,71Z"/></clipPath><clipPath id="clip-path-3"><path class="cls-1" d="M636.48,89.81a8.46,8.46,0,0,0-1.4-4.19,8,8,0,0,0-3.19-2.25,7.94,7.94,0,0,0-4.19.33,5.65,5.65,0,0,0-2.78,3.19,18.94,18.94,0,0,0-1.53,2,9.14,9.14,0,0,0-1,2q-3.09,8.17-6.25,16.16t-5.72,16A102,102,0,0,0,608,133.59q-.91,5.34-1.85,10.49a11.56,11.56,0,0,0,.84,6.42,7.88,7.88,0,0,0,2,2.51,7.09,7.09,0,0,0,3.55,1.45,6.27,6.27,0,0,0,6.43-2.81,9.6,9.6,0,0,1,.81-2,10.13,10.13,0,0,0,.82-2,179.9,179.9,0,0,0,9.26-27.36q3.48-13.86,6.61-28.08Z"/></clipPath><clipPath id="clip-path-4"><path class="cls-1" d="M657.28,143.41c3,4,5.22,6.57,8,7s4.91.81,8,0a27,27,0,0,0,6-2c2-1,5.33-3.82,7-5,7-7,11.8-11.85,15.41-18.89s4.73-15.24,3.37-24.63q-.84-6.58-5-10.09t-10.94-2.66a45.24,45.24,0,0,0-6.59,1.2c-2.26.58-4.58,1.21-7,1.91.12-.35.24-.8.37-1.33a6.3,6.3,0,0,1,.54-1.51c1.09-3.44,7.12-22.84,8.1-26.22s1.94-6.78,2.92-10.22a23.14,23.14,0,0,0,.57-5.16,9,9,0,0,0-1-3.47,5.57,5.57,0,0,0-2.92-2.43,10.86,10.86,0,0,0-4.09-.29,5.61,5.61,0,0,0-3.58,2.2,4.43,4.43,0,0,0-1.43,1.32c-.36.54-.72,1.1-1.08,1.69-.61,1.42-1.18,2.78-1.72,4.08s-1.06,2.66-1.54,4.09C659.81,82.31,653.84,95.88,655,93.12q-8.15,19.71-16.83,39.77c-.37,1.18-.73,2.25-1.09,3.2a21.78,21.78,0,0,0-.91,3,9.55,9.55,0,0,0-.14,7.12,11.1,11.1,0,0,0,4.32,5.37,9.08,9.08,0,0,0,4.27,1.72c1.54.19,1.26.44,2.68.09a9.93,9.93,0,0,0,4-2c1.14-.94,1.31-1.73,3-4m35.29-35.16a30.15,30.15,0,0,1-7.09,9.38A39,39,0,0,1,671.92,129q-5.53,2.55-9.09,1.45a44.76,44.76,0,0,1,5.14-9.58,71.3,71.3,0,0,1,7.72-9.47A66,66,0,0,1,684,104c2.74-2,5.13-3.11,7.15-3.34A20.31,20.31,0,0,1,689.57,112.25Z"/></clipPath><clipPath id="clip-path-5"><path class="cls-1" d="M765.71,118.43a8.37,8.37,0,0,0-3,1c-1,.56-2,1.15-3,1.77q-3.6,1.88-7.22,4t-7.41,4a30.67,30.67,0,0,1-4.45,1.58,44.21,44.21,0,0,1-4.65,1,7.14,7.14,0,0,1-5.67-1.27,6.91,6.91,0,0,1-2.8-5,36.15,36.15,0,0,1,.13-5.86,15.64,15.64,0,0,1,1.84-5.86q7.15,5,13.22,4.45a26.85,26.85,0,0,0,16-7.09,24.76,24.76,0,0,0,8-15.65q.78-4.92-1.56-8a12.38,12.38,0,0,0-7.26-4.22,24,24,0,0,0-11.55.49,44.06,44.06,0,0,0-10.72,4.94,72.25,72.25,0,0,0-10.85,8.26,63.65,63.65,0,0,0-9.25,10.53,41.88,41.88,0,0,0-5.86,11.79,28.73,28.73,0,0,0-1,12.2,21.89,21.89,0,0,0,5.69,11.68q10.14,12,26.25,9.27A35.09,35.09,0,0,0,751.21,149a70.22,70.22,0,0,0,9.79-6.18q3-2.62,5.81-5.26a24.36,24.36,0,0,0,4.68-6.21c.39-1,.8-2.08,1.25-3.21a9.88,9.88,0,0,0,.69-3.59C773.59,119.37,771,117.34,765.71,118.43ZM736,102.8a24.13,24.13,0,0,1,5.61-4.69A31.44,31.44,0,0,1,748.36,95a13.85,13.85,0,0,1,6.73-.52,15.83,15.83,0,0,1-3,6.23,19.4,19.4,0,0,1-5.24,4.69,21.89,21.89,0,0,1-6.64,2.7,19.44,19.44,0,0,1-7.38.24A14.18,14.18,0,0,1,736,102.8Z"/></clipPath><clipPath id="clip-path-6"><path class="cls-1" d="M817.21,87.77A9.77,9.77,0,0,0,814.5,84a5.71,5.71,0,0,0-4.63-1.17,28.53,28.53,0,0,0-4.93,1.1c-1.52.5-3,1-4.37,1.67a30.7,30.7,0,0,0-6.18,4.32,29,29,0,0,0-5,5.83q-11.07,12.6-5.69,28a36.19,36.19,0,0,0,1.49,4.65c.62,1.58,1.23,3.26,1.85,5a66.74,66.74,0,0,1-6.46,5.06c-.52.63-1,1.23-1.53,1.79s-1.08,1.16-1.72,1.79a5.77,5.77,0,0,0-.79,5.29,7.45,7.45,0,0,0,4,4.19,4.63,4.63,0,0,0,1.79.39l1.8,0a24.07,24.07,0,0,0,7.67-1.18,30.11,30.11,0,0,0,6.93-3.26q8.57-6.19,6.36-15.67a21.85,21.85,0,0,0-1.29-5q-.93-2.37-1.86-4.65-3.92-10,2.77-18.34a27.93,27.93,0,0,1,8.95-7.88A7.19,7.19,0,0,0,817,92.41,8,8,0,0,0,817.21,87.77Z"/></clipPath></defs><path class="cls-1" d="M231.14,93.62l-6.79-1.94a29.22,29.22,0,0,1-8.17-3.32,41.2,41.2,0,0,1-4.85-4.16,11.26,11.26,0,0,1-1.39-10.66C212,68,217,66.2,222,65.5c6.38-.69,13.72-.27,21.06,4.16,4.15,2.35,6.09,4.29,7.61,6.78l14.69-8.86A37.62,37.62,0,0,0,251.91,54.7c-11.36-6.65-23.82-7.34-32.13-6.37-7.2,1-20.5,5.54-25.9,18.56-4,9.83-.83,22.44,4.57,28.81a58.42,58.42,0,0,0,8,6.78,44.81,44.81,0,0,0,13.16,5.82l7.34,1.94c15.51,3.46,19,5.82,21.33,8.31,1.8,1.66,3.19,4.29,1.39,9.56a18.09,18.09,0,0,1-6.51,6.37,32.63,32.63,0,0,1-9,2.91c-8.17,1.11-13.71.14-21.47-4.3-6.51-3.74-9.14-8.58-9.83-10.66l-16.34,5.82a41.22,41.22,0,0,0,17.59,19.8,49.68,49.68,0,0,0,32.27,6.51c4.71-.55,10.94-2.91,14.82-4.85,5.82-3.32,11.63-9,14.27-14.68,5.12-12.88-.28-24-5-28.67C256.34,102.07,249.28,97.5,231.14,93.62Z"/><g id="akYsAWn8OIN9uhNWvd8Wg"><path class="cls-1" d="M22.55,117.09c-2.37-6.46-8.62-20.63-4.85-41.91,2-11.55,8.52-26.5,21.44-38.86a68.82,68.82,0,0,1,23-14.57A72.06,72.06,0,0,1,87.9,17a68,68,0,0,1,20.88,3,72.71,72.71,0,0,1,17.3,8c17.58,11,24.71,26.67,27.65,32.28,4.52,8.61,13.27,33.67-1.1,58.8C142,137,138.39,141.21,125.05,157.26c-10.67,12.85-27.81,28.56-29,29.91-2.37,2.63-4.76,4.1-7.54,4.06s-6.39-4.06-6.39-4.06-16.5-14.53-30.74-29.91-26.43-33.72-28.8-40.17ZM35.79,87.91a52.71,52.71,0,1,0,52.7-52.7A52.72,52.72,0,0,0,35.79,87.91Zm50.5-34.14c0-1,1.35-2.68,3-3.66a14,14,0,0,1,4.38-1.5s1.24,4,8.4,10.94c1.85,1.79,8.94,2.13,12.06,5.2,3.63,3.57,4.37,5.28,5.06,6.74.83,1.77,1.19,3.19,1.51,7.19a50.3,50.3,0,0,1,0,7.74,3.28,3.28,0,0,1-1.51,3c-6.38,3.74-6.24,2-6.24,2s1-3.41-.35-11.76c-.54-3.41-2.56-7.72-5.65-10.06a24.53,24.53,0,0,0-10.4-4.12l1,14.18V105s1,16.73-11.27,20-21.57-7.12-21.57-7.12-8.62-7.19,1-18.18,21.58,2.1,21.58,2.1a166.94,166.94,0,0,0,1.36-23.16C88.55,68.48,86.19,56.27,86.29,53.77Z"/></g><path class="cls-1" d="M318.74,79.75c-4.84,0-16.76,2.77-21.88,11.49V79.75H280.24V187.92h16.62V142.21c5.12,9.14,16.9,11.64,21.88,11.64,19.53,0,34.91-17,34.91-37.12C353.65,96.92,338.27,79.75,318.74,79.75Zm-1.24,59c-10.67,0-19.95-9.56-19.95-22S306.83,95,317.5,95s20.08,9.42,20.08,21.75S328.16,138.75,317.5,138.75Z"/><path class="cls-1" d="M395.34,79.88c-19.53,0-34.76,17-34.76,37s15.23,37,34.76,37,34.77-17,34.77-37S415,79.88,395.34,79.88Zm0,58.32c-10.52,0-19.53-9.15-19.53-21.33s9-21.2,19.53-21.2,19.53,9.15,19.53,21.2S405.87,138.2,395.34,138.2Z"/><path class="cls-1" d="M467.37,136.12c-3.74,0-5.82-2.08-5.82-6.51V93.46H480.8V77.39H461.55V53.57H444.38V77.39H431.77V93.46h12.61v36.15c0,12.6,10.94,23.68,23,23.68,6.51,0,12.05-2.91,16.48-7.06l-11.91-12.47C470,135.7,469.31,136.12,467.37,136.12Z"/><path class="cls-1" d="M606.59,101.9a26.67,26.67,0,0,0,1.64-5.06,17.29,17.29,0,0,0,.21-5.61,16.58,16.58,0,0,0-1-3.83,5.63,5.63,0,0,0-2.83-2.78,6.1,6.1,0,0,0-5-.66A14.19,14.19,0,0,0,594.76,87q-5.55,6.21-11,12.57c-3.65,4.25-5.62,6.91-9.45,10.8-3,3.07-3,3-7,7a85.71,85.71,0,0,1-7.4,6.37,14.47,14.47,0,0,1-4,2.82q-2.24,1.05-4.56,2.11-2.68,1.57-3.72-1.81a9.66,9.66,0,0,0-.44-1.07,3.21,3.21,0,0,1-.26-1.43c-.11-1.78-.24-3.56-.41-5.34s-.3-3.5-.41-5.17c-.09-3.44-.13-6.88-.1-10.32s0-6.95-.11-10.51c-.23-1.43-.4-2.85-.5-4.28s-.28-2.91-.51-4.45a4.34,4.34,0,0,0-1.4-3,13.77,13.77,0,0,0-3.19-2c-2.73-1-5-.86-6.77.31s-2.93,3.36-3.43,6.57q-1.66,10.31-3.35,21.16a82.73,82.73,0,0,0-.5,21.72,27.29,27.29,0,0,0,3.65,11.68,24.52,24.52,0,0,0,7.52,7.89,22.42,22.42,0,0,0,10.3,3.54,29.58,29.58,0,0,0,12.21-1.52c5.35-1.74,4.4-1.25,9.4-4.25,5.61-4.11,9.45-6.95,14.12-11.91a198.16,198.16,0,0,0,13.46-15.93,66.53,66.53,0,0,0,5.57-7.88A47.77,47.77,0,0,0,606.59,101.9Z"/><g class="cls-2"><polygon class="cls-1" points="842.28 188.41 520.28 188.41 514.28 48.41 836.28 48.41 842.28 188.41"/></g><path class="cls-1" d="M627.17,71a14.11,14.11,0,0,0,4.08,2.43,13.26,13.26,0,0,0,4.8.92,12.31,12.31,0,0,0,8.56-3,7.77,7.77,0,0,0,2.9-7.1q-.32-5.16-3.68-7.59t-9.6-2.83c-4.39-.14-7.34.84-8.83,3a11.38,11.38,0,0,0-2.27,6.57,7.81,7.81,0,0,0,1.13,4.1A13.51,13.51,0,0,0,627.17,71Z"/><g class="cls-3"><rect class="cls-1" x="519.28" y="32.41" width="322" height="145"/></g><path class="cls-1" d="M636.48,89.81a8.46,8.46,0,0,0-1.4-4.19,8,8,0,0,0-3.19-2.25,7.94,7.94,0,0,0-4.19.33,5.65,5.65,0,0,0-2.78,3.19,18.94,18.94,0,0,0-1.53,2,9.14,9.14,0,0,0-1,2q-3.09,8.17-6.25,16.16t-5.72,16A102,102,0,0,0,608,133.59q-.91,5.34-1.85,10.49a11.56,11.56,0,0,0,.84,6.42,7.88,7.88,0,0,0,2,2.51,7.09,7.09,0,0,0,3.55,1.45,6.27,6.27,0,0,0,6.43-2.81,9.6,9.6,0,0,1,.81-2,10.13,10.13,0,0,0,.82-2,179.9,179.9,0,0,0,9.26-27.36q3.48-13.86,6.61-28.08Z"/><g class="cls-4"><rect class="cls-1" x="519.28" y="32.41" width="322" height="145"/></g><path class="cls-1" d="M657.28,143.41c3,4,5.22,6.57,8,7s4.91.81,8,0a27,27,0,0,0,6-2c2-1,5.33-3.82,7-5,7-7,11.8-11.85,15.41-18.89s4.73-15.24,3.37-24.63q-.84-6.58-5-10.09t-10.94-2.66a45.24,45.24,0,0,0-6.59,1.2c-2.26.58-4.58,1.21-7,1.91.12-.35.24-.8.37-1.33a6.3,6.3,0,0,1,.54-1.51c1.09-3.44,7.12-22.84,8.1-26.22s1.94-6.78,2.92-10.22a23.14,23.14,0,0,0,.57-5.16,9,9,0,0,0-1-3.47,5.57,5.57,0,0,0-2.92-2.43,10.86,10.86,0,0,0-4.09-.29,5.61,5.61,0,0,0-3.58,2.2,4.43,4.43,0,0,0-1.43,1.32c-.36.54-.72,1.1-1.08,1.69-.61,1.42-1.18,2.78-1.72,4.08s-1.06,2.66-1.54,4.09C659.81,82.31,653.84,95.88,655,93.12q-8.15,19.71-16.83,39.77c-.37,1.18-.73,2.25-1.09,3.2a21.78,21.78,0,0,0-.91,3,9.55,9.55,0,0,0-.14,7.12,11.1,11.1,0,0,0,4.32,5.37,9.08,9.08,0,0,0,4.27,1.72c1.54.19,1.26.44,2.68.09a9.93,9.93,0,0,0,4-2c1.14-.94,1.31-1.73,3-4m35.29-35.16a30.15,30.15,0,0,1-7.09,9.38A39,39,0,0,1,671.92,129q-5.53,2.55-9.09,1.45a44.76,44.76,0,0,1,5.14-9.58,71.3,71.3,0,0,1,7.72-9.47A66,66,0,0,1,684,104c2.74-2,5.13-3.11,7.15-3.34A20.31,20.31,0,0,1,689.57,112.25Z"/><g class="cls-5"><polygon class="cls-1" points="843.28 169.41 521.28 169.41 520.28 28.41 842.28 28.41 843.28 169.41"/></g><path class="cls-1" d="M765.71,118.43a8.37,8.37,0,0,0-3,1c-1,.56-2,1.15-3,1.77q-3.6,1.88-7.22,4t-7.41,4a30.67,30.67,0,0,1-4.45,1.58,44.21,44.21,0,0,1-4.65,1,7.14,7.14,0,0,1-5.67-1.27,6.91,6.91,0,0,1-2.8-5,36.15,36.15,0,0,1,.13-5.86,15.64,15.64,0,0,1,1.84-5.86q7.15,5,13.22,4.45a26.85,26.85,0,0,0,16-7.09,24.76,24.76,0,0,0,8-15.65q.78-4.92-1.56-8a12.38,12.38,0,0,0-7.26-4.22,24,24,0,0,0-11.55.49,44.06,44.06,0,0,0-10.72,4.94,72.25,72.25,0,0,0-10.85,8.26,63.65,63.65,0,0,0-9.25,10.53,41.88,41.88,0,0,0-5.86,11.79,28.73,28.73,0,0,0-1,12.2,21.89,21.89,0,0,0,5.69,11.68q10.14,12,26.25,9.27A35.09,35.09,0,0,0,751.21,149a70.22,70.22,0,0,0,9.79-6.18q3-2.62,5.81-5.26a24.36,24.36,0,0,0,4.68-6.21c.39-1,.8-2.08,1.25-3.21a9.88,9.88,0,0,0,.69-3.59C773.59,119.37,771,117.34,765.71,118.43ZM736,102.8a24.13,24.13,0,0,1,5.61-4.69A31.44,31.44,0,0,1,748.36,95a13.85,13.85,0,0,1,6.73-.52,15.83,15.83,0,0,1-3,6.23,19.4,19.4,0,0,1-5.24,4.69,21.89,21.89,0,0,1-6.64,2.7,19.44,19.44,0,0,1-7.38.24A14.18,14.18,0,0,1,736,102.8Z"/><g class="cls-6"><polygon class="cls-1" points="841.28 167.41 519.28 177.41 519.28 32.41 841.28 32.41 841.28 167.41"/></g><path class="cls-1" d="M817.21,87.77A9.77,9.77,0,0,0,814.5,84a5.71,5.71,0,0,0-4.63-1.17,28.53,28.53,0,0,0-4.93,1.1c-1.52.5-3,1-4.37,1.67a30.7,30.7,0,0,0-6.18,4.32,29,29,0,0,0-5,5.83q-11.07,12.6-5.69,28a36.19,36.19,0,0,0,1.49,4.65c.62,1.58,1.23,3.26,1.85,5a66.74,66.74,0,0,1-6.46,5.06c-.52.63-1,1.23-1.53,1.79s-1.08,1.16-1.72,1.79a5.77,5.77,0,0,0-.79,5.29,7.45,7.45,0,0,0,4,4.19,4.63,4.63,0,0,0,1.79.39l1.8,0a24.07,24.07,0,0,0,7.67-1.18,30.11,30.11,0,0,0,6.93-3.26q8.57-6.19,6.36-15.67a21.85,21.85,0,0,0-1.29-5q-.93-2.37-1.86-4.65-3.92-10,2.77-18.34a27.93,27.93,0,0,1,8.95-7.88A7.19,7.19,0,0,0,817,92.41,8,8,0,0,0,817.21,87.77Z"/><g class="cls-7"><polygon class="cls-1" points="841.28 167.41 519.28 169.41 519.28 32.41 841.28 32.41 841.28 167.41"/></g><path class="cls-1" d="M511.28,46.06V62.78H494.57V46.06ZM495,80.45h16v73.17H495Z"/></svg>