<svg id="Capa_1" data-name="Capa 1" xmlns="http://www.w3.org/2000/svg" xmlns:xlink="http://www.w3.org/1999/xlink" viewBox="0 0 315 307"><defs><style>.cls-1{fill:none;}.cls-2{fill:#fff;}.cls-3{clip-path:url(#clip-path);}.cls-4{fill:url(#Degradado_sin_nombre_11);}.cls-5{clip-path:url(#clip-path-2);}.cls-6{fill:url(#Degradado_sin_nombre_11-2);}.cls-7{clip-path:url(#clip-path-3);}.cls-8{clip-path:url(#clip-path-4);}.cls-9{fill:url(#Degradado_sin_nombre_11-4);}.cls-10{clip-path:url(#clip-path-5);}.cls-11{fill:url(#Degradado_sin_nombre_11-5);}.cls-12{clip-path:url(#clip-path-6);}.cls-13{fill:url(#Degradado_sin_nombre_11-6);}.cls-14{fill:url(#Degradado_sin_nombre_2);}</style><clipPath id="clip-path"><path class="cls-1" d="M199,250.39a10.32,10.32,0,0,0,.67-2.06,7.13,7.13,0,0,0,.09-2.28,7.63,7.63,0,0,0-.43-1.57,2.3,2.3,0,0,0-1.15-1.13,2.46,2.46,0,0,0-2-.26,5.67,5.67,0,0,0-2,1.25q-2.26,2.52-4.5,5.12c-1.48,1.72-2.28,2.81-3.84,4.39-1.22,1.25-1.22,1.23-2.85,2.85a37.69,37.69,0,0,1-3,2.6,5.9,5.9,0,0,1-1.64,1.14c-.61.29-1.23.58-1.86.86s-1.23.19-1.51-.73a3.38,3.38,0,0,0-.18-.44,1.36,1.36,0,0,1-.11-.58c0-.73-.09-1.45-.16-2.18s-.13-1.42-.17-2.1c0-1.4-.05-2.8,0-4.2s0-2.83,0-4.28c-.09-.58-.16-1.16-.2-1.74s-.11-1.19-.21-1.82a1.71,1.71,0,0,0-.57-1.23,5.59,5.59,0,0,0-1.3-.81,3,3,0,0,0-2.75.13,3.71,3.71,0,0,0-1.4,2.67c-.45,2.8-.91,5.67-1.36,8.62a33.56,33.56,0,0,0-.21,8.84,11.17,11.17,0,0,0,1.49,4.76,10,10,0,0,0,3.06,3.21,9.31,9.31,0,0,0,4.19,1.44,12.17,12.17,0,0,0,5-.62,11.28,11.28,0,0,0,3.83-1.73,37,37,0,0,0,5.75-4.85,81.33,81.33,0,0,0,5.48-6.48,26.9,26.9,0,0,0,2.27-3.21A19.52,19.52,0,0,0,199,250.39Z"/></clipPath><linearGradient id="Degradado_sin_nombre_11" x1="181.75" y1="303.52" x2="274.57" y2="210.7" gradientUnits="userSpaceOnUse"><stop offset="0" stop-color="#4a75ee"/><stop offset="0.07" stop-color="#5469df"/><stop offset="0.24" stop-color="#6b4fbf"/><stop offset="0.38" stop-color="#793faa"/><stop offset="0.48" stop-color="#7e39a3"/><stop offset="0.56" stop-color="#8436a6"/><stop offset="0.67" stop-color="#942ead"/><stop offset="0.78" stop-color="#af21b9"/><stop offset="0.91" stop-color="#d50fca"/><stop offset="1" stop-color="#f400d8"/></linearGradient><clipPath id="clip-path-2"><path class="cls-1" d="M207.35,237.8a5.6,5.6,0,0,0,1.66,1,5.25,5.25,0,0,0,2,.38,5,5,0,0,0,3.49-1.21,3.15,3.15,0,0,0,1.18-2.89,3.89,3.89,0,0,0-1.5-3.09,7.46,7.46,0,0,0-3.91-1.15c-1.78-.06-3,.34-3.59,1.21a4.67,4.67,0,0,0-.93,2.67,3.26,3.26,0,0,0,.46,1.67A5.6,5.6,0,0,0,207.35,237.8Z"/></clipPath><linearGradient id="Degradado_sin_nombre_11-2" x1="181.44" y1="299.14" x2="276.5" y2="204.09" xlink:href="#Degradado_sin_nombre_11"/><clipPath id="clip-path-3"><path class="cls-1" d="M211.14,245.47a3.39,3.39,0,0,0-.57-1.71,3.2,3.2,0,0,0-1.3-.91,3.11,3.11,0,0,0-1.7.13,2.26,2.26,0,0,0-1.13,1.3,7,7,0,0,0-.63.82,4,4,0,0,0-.4.84c-.84,2.21-1.69,4.41-2.55,6.57s-1.63,4.34-2.32,6.51a43.36,43.36,0,0,0-1,4.27c-.25,1.45-.5,2.87-.75,4.27a4.68,4.68,0,0,0,.34,2.61,3.26,3.26,0,0,0,.79,1,2.81,2.81,0,0,0,1.45.59,2.53,2.53,0,0,0,2.62-1.14,3.87,3.87,0,0,1,.33-.83,4.21,4.21,0,0,0,.33-.83,73.06,73.06,0,0,0,3.77-11.14q1.42-5.64,2.69-11.43Z"/></clipPath><clipPath id="clip-path-4"><path class="cls-1" d="M219.61,267.29c1.22,1.63,2.12,2.67,3.26,2.85a7,7,0,0,0,3.25,0,10.86,10.86,0,0,0,2.45-.82,29.05,29.05,0,0,0,2.85-2c2.85-2.85,4.8-4.83,6.27-7.69a16.4,16.4,0,0,0,1.37-10,6.15,6.15,0,0,0-2-4.11,5.54,5.54,0,0,0-4.45-1.08,17.87,17.87,0,0,0-2.68.49c-.92.23-1.87.49-2.83.78,0-.15.09-.33.14-.55a2.64,2.64,0,0,1,.23-.61c.44-1.4,2.9-9.3,3.29-10.67s.79-2.76,1.19-4.16a9.07,9.07,0,0,0,.23-2.1,3.51,3.51,0,0,0-.39-1.42,2.27,2.27,0,0,0-1.19-1,4.3,4.3,0,0,0-1.66-.12,2.31,2.31,0,0,0-1.46.9,1.77,1.77,0,0,0-.58.54c-.15.21-.29.44-.44.68-.25.58-.48,1.14-.7,1.67s-.43,1.08-.63,1.66c-4.45,11.93-6.88,17.46-6.42,16.34q-3.31,8-6.85,16.18c-.15.49-.3.92-.44,1.31a8.45,8.45,0,0,0-.37,1.23,3.81,3.81,0,0,0-.06,2.89,4.52,4.52,0,0,0,1.76,2.19,3.67,3.67,0,0,0,1.73.7c.63.08.52.18,1.1,0a4.23,4.23,0,0,0,1.63-.81,9.94,9.94,0,0,0,1.22-1.63m14.37-14.32a12.42,12.42,0,0,1-2.89,3.82,15.94,15.94,0,0,1-4.3,3,5.32,5.32,0,0,1-3.7.59,18.36,18.36,0,0,1,2.09-3.9,29.54,29.54,0,0,1,3.14-3.86,27.15,27.15,0,0,1,3.4-3,6.46,6.46,0,0,1,2.9-1.36A8.28,8.28,0,0,1,232.76,254.6Z"/></clipPath><linearGradient id="Degradado_sin_nombre_11-4" x1="182.56" y1="296.19" x2="276.6" y2="202.15" xlink:href="#Degradado_sin_nombre_11"/><clipPath id="clip-path-5"><path class="cls-1" d="M263.75,257.12a3.33,3.33,0,0,0-1.23.42c-.42.22-.83.47-1.24.72-1,.51-2,1.05-2.94,1.64s-2,1.13-3,1.63a12.46,12.46,0,0,1-1.81.64,15.69,15.69,0,0,1-1.89.41,2.9,2.9,0,0,1-2.31-.51,2.78,2.78,0,0,1-1.14-2.05,14.8,14.8,0,0,1,.05-2.39,6.13,6.13,0,0,1,.75-2.38,8.25,8.25,0,0,0,5.38,1.8,10.88,10.88,0,0,0,6.53-2.88,10,10,0,0,0,3.24-6.37,4,4,0,0,0-.63-3.24,5.05,5.05,0,0,0-2.95-1.72,9.8,9.8,0,0,0-4.71.2,17.65,17.65,0,0,0-4.36,2,29.15,29.15,0,0,0-4.42,3.36,26,26,0,0,0-3.77,4.29,17.33,17.33,0,0,0-2.38,4.8,11.65,11.65,0,0,0-.42,5,8.87,8.87,0,0,0,2.32,4.75A10.73,10.73,0,0,0,253.48,271a14.4,14.4,0,0,0,4.37-1.44,29.71,29.71,0,0,0,4-2.51c.83-.72,1.62-1.43,2.37-2.14a10.05,10.05,0,0,0,1.9-2.53l.51-1.31a3.79,3.79,0,0,0,.28-1.46Q267,256.45,263.75,257.12Zm-12.09-6.36a9.66,9.66,0,0,1,2.29-1.91,12.55,12.55,0,0,1,2.74-1.26,5.63,5.63,0,0,1,2.74-.21,6.57,6.57,0,0,1-1.22,2.54,7.94,7.94,0,0,1-2.13,1.91,9,9,0,0,1-2.7,1.1,8,8,0,0,1-3,.09A5.74,5.74,0,0,1,251.66,250.76Z"/></clipPath><linearGradient id="Degradado_sin_nombre_11-5" x1="180.43" y1="298.13" x2="275.49" y2="203.07" xlink:href="#Degradado_sin_nombre_11"/><clipPath id="clip-path-6"><path class="cls-1" d="M284.72,244.64a3.88,3.88,0,0,0-1.11-1.55,2.32,2.32,0,0,0-1.88-.48,11.85,11.85,0,0,0-2,.45,18.76,18.76,0,0,0-1.78.68,12.42,12.42,0,0,0-2.51,1.76,11.85,11.85,0,0,0-2.06,2.37,10.79,10.79,0,0,0-2.31,11.39,14.7,14.7,0,0,0,.6,1.89c.25.65.5,1.33.76,2.05a26,26,0,0,1-2.64,2.06c-.21.26-.41.5-.62.73s-.44.47-.7.73a2.34,2.34,0,0,0-.32,2.15,3.07,3.07,0,0,0,1.61,1.71,2,2,0,0,0,.73.16h.73a9.6,9.6,0,0,0,3.12-.48,11.76,11.76,0,0,0,2.82-1.33q3.5-2.52,2.59-6.37a9.2,9.2,0,0,0-.52-2.05l-.76-1.89a7.06,7.06,0,0,1,1.13-7.47,11.4,11.4,0,0,1,3.64-3.21,3,3,0,0,0,1.4-1.42A3.26,3.26,0,0,0,284.72,244.64Z"/></clipPath><linearGradient id="Degradado_sin_nombre_11-6" x1="182.05" y1="296.5" x2="275.49" y2="203.07" xlink:href="#Degradado_sin_nombre_11"/><linearGradient id="Degradado_sin_nombre_2" x1="4.52" y1="442.35" x2="78.6" y2="538.81" gradientTransform="matrix(1.57, 0, 0, -1.57, 87.94, 872.23)" gradientUnits="userSpaceOnUse"><stop offset="0" stop-color="#5f96d8"/><stop offset="0.47" stop-color="#612eb3"/><stop offset="0.77" stop-color="#981fd0"/><stop offset="1" stop-color="#da00d1"/></linearGradient></defs><path class="cls-2" d="M45.92,247.18l-2.76-.79A11.74,11.74,0,0,1,39.83,245a17,17,0,0,1-2-1.69A4.6,4.6,0,0,1,37.3,239c.84-2.25,2.87-3,4.9-3.27a13.24,13.24,0,0,1,8.57,1.69,7.58,7.58,0,0,1,3.11,2.77l6-3.61a15.39,15.39,0,0,0-5.47-5.25,21.48,21.48,0,0,0-13.08-2.59c-2.93.39-8.34,2.25-10.54,7.55A12.44,12.44,0,0,0,32.62,248a22.93,22.93,0,0,0,3.27,2.77,18.34,18.34,0,0,0,5.35,2.36l3,.79c6.32,1.41,7.73,2.37,8.69,3.39.73.67,1.29,1.74.56,3.89a7.24,7.24,0,0,1-2.65,2.59A13.18,13.18,0,0,1,47.17,265a12.23,12.23,0,0,1-8.74-1.75,8.72,8.72,0,0,1-4-4.34l-6.65,2.36a16.78,16.78,0,0,0,7.16,8.07A20.28,20.28,0,0,0,48.07,272a21.26,21.26,0,0,0,6-2,14.74,14.74,0,0,0,5.81-6,11,11,0,0,0-2-11.68C56.19,250.62,53.31,248.76,45.92,247.18Z"/><path class="cls-2" d="M81.79,241.37c-2,0-6.82,1.13-8.91,4.68v-4.68H66.11v44h6.77V266.8c2.09,3.72,6.88,4.74,8.91,4.74,7.95,0,14.21-6.94,14.21-15.12S89.74,241.37,81.79,241.37Zm-.51,24c-4.34,0-8.12-3.89-8.12-9s3.78-8.85,8.12-8.85,8.18,3.84,8.18,8.85S85.62,265.39,81.28,265.39Z"/><path class="cls-2" d="M113,241.43c-8,0-14.15,6.93-14.15,15.05S105,271.54,113,271.54s14.15-6.94,14.15-15.06S121,241.43,113,241.43Zm0,23.73c-4.28,0-8-3.72-8-8.68s3.67-8.63,8-8.63,8,3.73,8,8.63S117.26,265.16,113,265.16Z"/><path class="cls-2" d="M142.29,264.32c-1.52,0-2.36-.85-2.36-2.65V247h7.83v-6.54h-7.83v-9.7h-7v9.7H127.8V247h5.13v14.72c0,5.13,4.46,9.64,9.36,9.64a9.76,9.76,0,0,0,6.71-2.87l-4.84-5.08C143.37,264.15,143.08,264.32,142.29,264.32Z"/><g class="cls-3"><polygon class="cls-4" points="294.93 285.61 163.84 285.61 161.39 228.61 292.48 228.61 294.93 285.61"/></g><g class="cls-5"><rect class="cls-6" x="163.43" y="222.1" width="131.09" height="59.03"/></g><g class="cls-7"><rect class="cls-6" x="163.43" y="222.1" width="131.09" height="59.03"/></g><g class="cls-8"><polygon class="cls-9" points="295.33 277.87 164.24 277.87 163.84 220.47 294.93 220.47 295.33 277.87"/></g><g class="cls-10"><polygon class="cls-11" points="294.52 277.06 163.43 281.13 163.43 222.1 294.52 222.1 294.52 277.06"/></g><g class="cls-12"><polygon class="cls-13" points="294.52 277.06 163.43 277.87 163.43 222.1 294.52 222.1 294.52 277.06"/></g><path class="cls-2" d="M160.17,227.66v6.8h-6.8v-6.8Zm-6.64,14h6.53v29.78h-6.53Z"/><g id="BwrBvD57vQVxMVghcC-14"><path class="cls-14" d="M94,122c2.37,6.45,14.54,24.79,28.78,40.15s30.73,29.89,30.73,29.89,3.6,4,6.37,4.05,5.18-1.42,7.54-4.05c1.22-1.35,14.72-14,29-29.89,13.6-15.14,25.84-33.61,27.56-38.11,3.2-8.4,14.44-28.17,1.1-58.76C222.2,59.7,215.08,44,197.5,33a72.43,72.43,0,0,0-17.29-8,67.83,67.83,0,0,0-20.86-3,71.9,71.9,0,0,0-25.77,4.75,68.79,68.79,0,0,0-23,14.55C97.7,53.66,91.23,68.6,89.19,80.15,85.42,101.41,91.67,115.58,94,122Z"/></g><g id="S11NKakR6PDzuL7KhdR3Q"><path class="cls-2" d="M159.94,40.2a52.67,52.67,0,1,1-52.67,52.67A52.69,52.69,0,0,1,159.94,40.2Zm.22,43.44a166.88,166.88,0,0,1-1.36,23.15s-11.9-13.08-21.57-2.1-1,18.17-1,18.17,9.25,10.41,21.55,7.11S169,110,169,110V84.71l-1-14.17a24.46,24.46,0,0,1,10.39,4.12c3.1,2.34,5.12,6.64,5.65,10,1.32,8.35.35,11.76.35,11.76s-.13,1.69,6.24-2a3.28,3.28,0,0,0,1.51-3.06,50.13,50.13,0,0,0,0-7.73c-.32-4-.68-5.41-1.51-7.19-.69-1.46-1.43-3.16-5.06-6.73-3.11-3.07-10.2-3.41-12-5.19-7.16-6.92-8.4-10.94-8.4-10.94a13.89,13.89,0,0,0-4.37,1.5c-1.7,1-3,2.71-3.05,3.65C157.63,61.25,160,73.45,160.16,83.64Z"/></g></svg>