<?xml version="1.0" encoding="UTF-8" standalone="no" ?>
<!DOCTYPE svg PUBLIC "-//W3C//DTD SVG 1.1//EN" "http://www.w3.org/Graphics/SVG/1.1/DTD/svg11.dtd">
<svg xmlns="http://www.w3.org/2000/svg" xmlns:xlink="http://www.w3.org/1999/xlink" version="1.1" width="24" height="24" viewBox="0 0 24 24" xml:space="preserve">
<desc>Created with Fabric.js 5.3.0</desc>
<defs>
</defs>
<g transform="matrix(1 0 0 1 12 12)" id="lM4B0nBdKCE3qmP8k6mxL"  >
<path style="stroke: none; stroke-width: 1; stroke-dasharray: none; stroke-linecap: butt; stroke-dashoffset: 0; stroke-linejoin: miter; stroke-miterlimit: 4; fill: none; fill-rule: nonzero; opacity: 1;" vector-effect="non-scaling-stroke"  transform=" translate(-12, -12)" d="M 0 0 L 24 0 L 24 24 L 0 24 z" stroke-linecap="round" />
</g>
<g transform="matrix(1 0 0 1 12 12.175)" id="JHm-tjEl0bZF3HxGvQ8Pl"  >
<linearGradient id="SVGID_150" gradientUnits="userSpaceOnUse" gradientTransform="matrix(1 0 0 1 2 3)"  x1="7.3754646840148705" y1="13.467100371747215" x2="19.46468401486989" y2="0.8181226765799252">
<stop offset="0%" style="stop-color:#6C3BF4;stop-opacity: 1"/>
<stop offset="100%" style="stop-color:#F4279D;stop-opacity: 1"/>
</linearGradient>
<path style="stroke: none; stroke-width: 1; stroke-dasharray: none; stroke-linecap: butt; stroke-dashoffset: 0; stroke-linejoin: miter; stroke-miterlimit: 4; fill: url(#SVGID_150); fill-rule: nonzero; opacity: 1;" vector-effect="non-scaling-stroke"  transform=" translate(-12, -12.175)" d="M 16.5 3 C 14.76 3 13.09 3.81 12 5.09 C 10.91 3.81 9.24 3 7.5 3 C 4.42 3 2 5.42 2 8.5 C 2 12.28 5.4 15.36 10.55 20.04 L 12 21.35 L 13.45 20.03 C 18.6 15.36 22 12.28 22 8.5 C 22 5.42 19.58 3 16.5 3 z M 12.1 18.55 L 12 18.650000000000002 L 11.9 18.55 C 7.14 14.24 4 11.39 4 8.5 C 4 6.5 5.5 5 7.5 5 C 9.04 5 10.54 5.99 11.07 7.359999999999999 L 12.940000000000001 7.359999999999999 C 13.46 5.99 14.96 5 16.5 5 C 18.5 5 20 6.5 20 8.5 C 20 11.39 16.86 14.24 12.1 18.55 z" stroke-linecap="round" />
</g>
</svg>